<svg width="26" height="26" viewBox="0 0 26 26" fill="none" xmlns="http://www.w3.org/2000/svg">
<path d="M13.4834 0.922852C15.6773 0.927005 17.2629 0.955806 18.251 1.00781H18.2637C19.1479 1.04189 20.0238 1.19172 20.8691 1.45312C21.6746 1.74383 22.4061 2.20872 23.0117 2.81445C23.6191 3.42211 24.0838 4.15729 24.374 4.96582C24.6395 5.81432 24.7986 6.69231 24.8467 7.58008H24.8477C24.8857 8.65001 24.9043 10.4241 24.9043 12.9131C24.9043 15.4007 24.8742 17.1796 24.8184 18.249V18.2627C24.7848 19.1529 24.6365 20.0177 24.375 20.8594C24.0835 21.6678 23.6175 22.402 23.0098 23.0098C22.403 23.6165 21.6701 24.0814 20.8633 24.373C20.0191 24.6337 19.1447 24.7843 18.2617 24.8184H18.249C17.1872 24.8741 15.401 24.9043 12.9131 24.9043C10.4256 24.9043 8.64662 24.8742 7.57715 24.8184H7.56055C6.67843 24.7884 5.80781 24.6212 4.98145 24.3252L4.96484 24.3193L4.94824 24.3145L4.64941 24.21C3.96214 23.9466 3.33774 23.5407 2.81641 23.0166L2.81445 23.0137L2.5918 22.7793C2.09127 22.2207 1.70404 21.5693 1.4502 20.8613C1.18841 20.0265 1.03967 19.1477 1.00781 18.2676V18.2529L0.970703 17.3213C0.938833 16.2544 0.921877 14.7831 0.921875 12.917C0.921875 10.4292 0.952 8.64952 1.00781 7.58008V7.56836C1.04196 6.68252 1.19279 5.80478 1.45508 4.95801C1.74573 4.1538 2.20965 3.42319 2.81445 2.81836C3.42274 2.21007 4.15811 1.74347 4.96777 1.45312C5.70402 1.22623 6.46366 1.08518 7.23145 1.03027L7.56445 1.01172L7.57715 1.01074C8.63895 0.954954 10.4251 0.925781 12.9131 0.925781H13.4824L13.4834 0.922852ZM11.9893 1.46191C10.4521 1.46191 9.2603 1.48067 8.39648 1.51953C7.26228 1.5389 6.13518 1.70579 5.04395 2.01562L5.01074 2.02441L4.7207 2.13867C4.12865 2.39328 3.58971 2.75892 3.13281 3.21582C2.61057 3.73806 2.20856 4.36818 1.9541 5.06152L1.94336 5.09082L1.93457 5.12109C1.61911 6.2055 1.45223 7.32717 1.4375 8.45312C1.39847 9.32192 1.37891 10.531 1.37891 12.0723V13.916C1.37891 15.0808 1.3892 16.0475 1.41113 16.8232L1.4375 17.5352C1.45896 18.6605 1.62516 19.7785 1.93262 20.8613L1.94434 20.9053L1.96094 20.9473C2.22795 21.6263 2.6325 22.2428 3.14844 22.7588C3.66438 23.2747 4.28092 23.6793 4.95996 23.9463L5.00195 23.9629L5.0459 23.9746C6.13712 24.2844 7.26425 24.4513 8.39844 24.4707V24.4697C9.26529 24.508 10.4652 24.5283 11.9912 24.5283H13.833C15.4171 24.5283 16.6159 24.5073 17.4424 24.4697C18.5694 24.4558 19.7002 24.2894 20.7852 23.9727L20.8252 23.9609L20.8643 23.9463C21.5433 23.6793 22.1598 23.2747 22.6758 22.7588C23.1917 22.2429 23.5963 21.6263 23.8633 20.9473L23.8799 20.9053L23.8916 20.8613C24.2014 19.7701 24.3683 18.643 24.3877 17.5088L24.3867 17.5078C24.4249 16.641 24.4453 15.4415 24.4453 13.916V12.0723C24.4453 10.8794 24.4338 9.90614 24.4121 9.14453L24.3867 8.45312C24.372 7.32929 24.2053 6.20418 23.8896 5.12109L23.8809 5.09082L23.8701 5.06055C23.6154 4.36713 23.213 3.737 22.6904 3.21484C22.1678 2.69269 21.5374 2.29127 20.8438 2.03711L20.8145 2.02539L20.7842 2.0166L20.3721 1.9043C19.4129 1.66045 18.4283 1.53152 17.4404 1.51953C16.5725 1.48084 15.3676 1.46191 13.833 1.46191H11.9893ZM12.9072 7.41602H12.9189C13.8865 7.40986 14.8376 7.66644 15.6709 8.1582L15.6787 8.16309C16.5188 8.64837 17.2169 9.34644 17.7021 10.1865L17.7041 10.1895C18.13 10.9201 18.3805 11.7498 18.4365 12.5908L18.4482 12.9521C18.4418 14.4181 17.857 15.8227 16.8203 16.8594C15.7836 17.896 14.3791 18.48 12.9131 18.4863C11.9431 18.4819 10.9912 18.2248 10.1514 17.7393C9.41545 17.3137 8.7876 16.7265 8.31543 16.0234L8.12305 15.7158C7.63833 14.8755 7.38288 13.9223 7.38281 12.9521C7.38281 11.9818 7.63821 11.028 8.12305 10.1875C8.61254 9.34486 9.31085 8.64728 10.1484 8.16211L10.1553 8.1582C10.9885 7.66646 11.9397 7.40986 12.9072 7.41602ZM12.9131 7.87695C11.5682 7.87695 10.2781 8.41134 9.32715 9.3623C8.37623 10.3133 7.8418 11.6034 7.8418 12.9482C7.84184 14.2929 8.37647 15.5823 9.32715 16.5332C10.2781 17.4842 11.5682 18.0186 12.9131 18.0186C14.2579 18.0185 15.5481 17.4842 16.499 16.5332C17.4497 15.5823 17.9834 14.2928 17.9834 12.9482C17.9834 11.6034 17.4499 10.3133 16.499 9.3623C15.5481 8.41135 14.2579 7.87696 12.9131 7.87695ZM19.8154 5.35059C20.0034 5.3545 20.1793 5.43035 20.3086 5.55957C20.4297 5.68068 20.5 5.841 20.5137 6.01074C20.4875 6.2121 20.4037 6.3971 20.2666 6.54102L20.2588 6.54883L20.252 6.55664C20.2011 6.61243 20.139 6.65646 20.0703 6.6875C19.9509 6.73702 19.8191 6.7498 19.6924 6.72363C19.5647 6.69714 19.4477 6.63317 19.3574 6.53906L19.3486 6.5293L19.3389 6.51953L19.2725 6.44336C19.2117 6.36258 19.1688 6.26884 19.1484 6.16895C19.1215 6.03601 19.1347 5.89782 19.1865 5.77246C19.2384 5.64712 19.3265 5.53992 19.4395 5.46484C19.5508 5.39091 19.6819 5.35095 19.8154 5.35059Z" fill="white" stroke="white" stroke-width="1.84393"/>
</svg>
