<svg width="28" height="28" viewBox="0 0 28 28" fill="none" xmlns="http://www.w3.org/2000/svg">
<path d="M4.1949 10.6491H3.54947C2.3322 10.6491 1.72421 10.6491 1.34599 11.0274C0.967773 11.4056 0.967773 12.0136 0.967773 13.2308V24.2031C0.967773 25.4203 0.967773 26.0283 1.34599 26.4065C1.72421 26.7847 2.3322 26.7847 3.54947 26.7847H4.1949C5.41217 26.7847 6.02016 26.7847 6.39837 26.4065C6.77659 26.0283 6.77659 25.4203 6.77659 24.2031V13.2308C6.77659 12.0136 6.77659 11.4056 6.39837 11.0274C6.02016 10.6491 5.41217 10.6491 4.1949 10.6491ZM6.77659 3.87218C6.77659 4.64248 6.47059 5.38123 5.92591 5.92591C5.38123 6.47059 4.64248 6.77659 3.87218 6.77659C3.10189 6.77659 2.36314 6.47059 1.81846 5.92591C1.27377 5.38123 0.967773 4.64248 0.967773 3.87218C0.967773 3.10189 1.27377 2.36314 1.81846 1.81846C2.36314 1.27377 3.10189 0.967773 3.87218 0.967773C4.64248 0.967773 5.38123 1.27377 5.92591 1.81846C6.47059 2.36314 6.77659 3.10189 6.77659 3.87218Z" stroke="white" stroke-width="1.93627"/>
<path d="M14.2964 10.6468H13.2301C12.0129 10.6468 11.4049 10.6468 11.0267 11.025C10.6484 11.4032 10.6484 12.0112 10.6484 13.2285V24.2007C10.6484 25.418 10.6484 26.026 11.0267 26.4042C11.4049 26.7824 12.0129 26.7824 13.2301 26.7824H13.8756C15.0928 26.7824 15.7008 26.7824 16.079 26.4042C16.4573 26.026 16.4573 25.418 16.4573 24.2007V19.6827C16.4573 17.5438 17.1388 15.8102 19.1525 15.8102C20.1594 15.8102 20.9752 16.6776 20.9752 17.7465V23.5553C20.9752 24.7726 20.9752 25.3805 21.3534 25.7588C21.7317 26.137 22.3397 26.137 23.5569 26.137H24.2011C25.417 26.137 26.0263 26.137 26.4045 25.7588C26.7815 25.3805 26.7828 24.7726 26.7828 23.5566L26.784 16.4556C26.784 13.2466 23.7325 10.6468 20.7132 10.6468C18.9938 10.6468 17.4602 11.4884 16.4573 12.8064C16.4573 11.9932 16.4573 11.5865 16.2804 11.2845C16.1686 11.0933 16.0094 10.9342 15.8183 10.8224C15.5162 10.6455 15.1096 10.6455 14.2964 10.6455V10.6468Z" stroke="white" stroke-width="1.93627" stroke-linejoin="round"/>
</svg>
