<svg width="460" height="508" viewBox="0 0 460 508" fill="none" xmlns="http://www.w3.org/2000/svg">
<path d="M430.659 42.5996H460V250.414C460 311.359 435.768 369.809 392.635 412.903C370.292 435.227 331.222 457.946 300.957 473.99C285.213 482.337 270.716 489.456 260.163 494.487C254.878 497.006 250.56 499.012 247.543 500.397C246.034 501.09 244.85 501.628 244.03 501.999C243.621 502.184 243.302 502.326 243.08 502.426C242.969 502.475 242.882 502.514 242.82 502.542C242.789 502.556 242.764 502.567 242.745 502.575C242.736 502.579 242.722 502.586 242.722 502.586L242.714 502.59C242.714 502.59 242.586 502.317 230.5 475.213L242.708 502.592L230.559 508L218.39 502.636L230.5 475.213C218.531 502.315 218.384 502.633 218.384 502.633L218.376 502.629C218.376 502.629 218.362 502.623 218.353 502.619C218.334 502.611 218.309 502.6 218.277 502.586C218.215 502.558 218.127 502.52 218.015 502.47C217.791 502.37 217.47 502.227 217.057 502.042C216.23 501.672 215.034 501.134 213.511 500.441C210.466 499.057 206.109 497.052 200.776 494.533C190.128 489.503 175.504 482.383 159.632 474.037C129.142 458.004 89.7557 435.274 67.3652 412.903C35.2397 380.807 13.5997 340.192 4.64648 296.373H66.3438C74.1607 324.155 89.0059 349.747 109.792 370.514C124.909 385.618 156.483 404.639 187.577 420.99C202.497 428.835 216.32 435.566 226.422 440.338C227.838 441.007 229.18 441.637 230.439 442.225C231.66 441.65 232.958 441.036 234.326 440.384C244.335 435.613 258.036 428.882 272.834 421.037C303.653 404.698 335.044 385.665 350.208 370.514C370.994 349.747 385.839 324.155 393.655 296.373H252V236.426H400V97.4695L225 61.2207L60 95.4001V236.426H0V42.5996H19.3516L225 0L430.659 42.5996Z" fill="url(#paint0_linear_380_1048)"/>
<path d="M284.925 266.014C284.925 296.344 260.334 320.932 230 320.932C199.666 320.932 175.075 296.344 175.075 266.014C175.075 235.683 199.666 211.095 230 211.095C260.334 211.095 284.925 235.683 284.925 266.014Z" fill="url(#paint1_linear_380_1048)"/>
<defs>
<linearGradient id="paint0_linear_380_1048" x1="230" y1="22.3108" x2="230" y2="508" gradientUnits="userSpaceOnUse">
<stop stop-color="white"/>
<stop offset="0.310037" stop-color="#BEEE03"/>
<stop offset="1" stop-color="#02B2AF"/>
</linearGradient>
<linearGradient id="paint1_linear_380_1048" x1="230" y1="22.3108" x2="230" y2="508" gradientUnits="userSpaceOnUse">
<stop stop-color="white"/>
<stop offset="0.310037" stop-color="#BEEE03"/>
<stop offset="1" stop-color="#02B2AF"/>
</linearGradient>
</defs>
</svg>
