<svg width="139" height="56" viewBox="0 0 139 56" fill="none" xmlns="http://www.w3.org/2000/svg">
<g opacity="0.52" filter="url(#filter0_d_403_174)">
<path d="M126.99 36.5649C123.79 31.7153 119.615 27.153 114.763 23.3802C107.378 17.6391 98.3496 13.3402 88.4163 10.8358C78.4829 8.33135 67.9278 7.69267 57.6158 8.97208C47.3038 10.2515 37.5284 13.4126 29.0908 18.1963C20.6531 22.98 13.7933 29.2502 9.07351 36.4931C8.21283 37.9028 8.09463 39.5181 8.74414 40.9946C9.39365 42.4711 10.7595 43.6918 12.5502 44.3963C14.3409 45.1009 16.4148 45.2334 18.3295 44.7657C20.2441 44.298 21.8479 43.2672 22.7988 41.893C26.4212 36.3376 31.6847 31.5285 38.1583 27.8598C44.6319 24.1912 52.1312 21.7673 60.0418 20.7867C67.9525 19.8062 76.0494 20.2969 83.6691 22.2187C91.2888 24.1405 98.2145 27.4387 103.879 31.843C107.674 34.8343 110.851 38.2649 113.296 42.0126C113.741 42.7312 114.367 43.3732 115.136 43.9011C115.905 44.4289 116.802 44.8318 117.774 45.0861C118.746 45.3403 119.774 45.4409 120.797 45.3817C121.82 45.3226 122.818 45.105 123.731 44.7417C124.644 44.3784 125.455 43.8768 126.115 43.2663C126.775 42.6559 127.272 41.9489 127.575 41.187C127.879 40.4252 127.984 39.6238 127.883 38.83C127.783 38.0362 127.479 37.2661 126.99 36.5649Z" fill="#F0F0F0"/>
</g>
<defs>
<filter id="filter0_d_403_174" x="-0.000198722" y="-0.000198722" width="138.122" height="55.6009" filterUnits="userSpaceOnUse" color-interpolation-filters="sRGB">
<feFlood flood-opacity="0" result="BackgroundImageFix"/>
<feColorMatrix in="SourceAlpha" type="matrix" values="0 0 0 0 0 0 0 0 0 0 0 0 0 0 0 0 0 0 127 0" result="hardAlpha"/>
<feOffset dx="0.935986" dy="0.935986"/>
<feGaussianBlur stdDeviation="4.63313"/>
<feComposite in2="hardAlpha" operator="out"/>
<feColorMatrix type="matrix" values="0 0 0 0 1 0 0 0 0 1 0 0 0 0 1 0 0 0 1 0"/>
<feBlend mode="normal" in2="BackgroundImageFix" result="effect1_dropShadow_403_174"/>
<feBlend mode="normal" in="SourceGraphic" in2="effect1_dropShadow_403_174" result="shape"/>
</filter>
</defs>
</svg>
