<svg width="182" height="61" viewBox="0 0 182 61" fill="none" xmlns="http://www.w3.org/2000/svg">
<g opacity="0.51" filter="url(#filter0_d_403_175)">
<path d="M169.831 41.1632C166.425 37.3346 162.527 33.6656 158.393 30.4432C140.176 16.2841 115.473 8.33008 89.7149 8.33008C63.9572 8.33008 39.2539 16.2841 21.037 30.4432C17.0466 33.538 13.1895 37.207 9.70178 41.1153C9.12589 41.7611 8.71922 42.4887 8.50498 43.2567C8.29074 44.0246 8.27314 44.8179 8.45317 45.5911C8.81676 47.1528 9.9633 48.5381 11.6406 49.4425C12.4711 49.8903 13.4068 50.2065 14.3945 50.3731C15.3822 50.5396 16.4023 50.5533 17.3968 50.4133C18.3913 50.2733 19.3405 49.9824 20.1904 49.5572C21.0403 49.132 21.7741 48.5807 22.35 47.935C25.3454 44.577 28.628 41.4663 31.9105 38.898C40.4037 32.2956 50.6637 27.2296 61.9607 24.0604C73.2578 20.8912 85.3142 19.6967 97.2723 20.5618C109.23 21.4269 120.796 24.3303 131.148 29.0656C141.499 33.8008 150.381 40.2516 157.162 47.9589C157.736 48.6057 158.468 49.1583 159.316 49.5851C160.165 50.0119 161.113 50.3046 162.107 50.4464C163.101 50.5882 164.121 50.5765 165.109 50.4117C166.098 50.247 167.034 49.9326 167.866 49.4863C168.698 49.0401 169.409 48.4709 169.958 47.8111C170.506 47.1514 170.883 46.414 171.065 45.6411C171.248 44.8682 171.233 44.075 171.021 43.3067C170.809 42.5384 170.404 41.81 169.831 41.1632Z" fill="#F0F0F0"/>
</g>
<defs>
<filter id="filter0_d_403_175" x="-0.000198722" y="-0.000198722" width="181.394" height="60.7474" filterUnits="userSpaceOnUse" color-interpolation-filters="sRGB">
<feFlood flood-opacity="0" result="BackgroundImageFix"/>
<feColorMatrix in="SourceAlpha" type="matrix" values="0 0 0 0 0 0 0 0 0 0 0 0 0 0 0 0 0 0 127 0" result="hardAlpha"/>
<feOffset dx="0.935986" dy="0.935986"/>
<feGaussianBlur stdDeviation="4.63313"/>
<feComposite in2="hardAlpha" operator="out"/>
<feColorMatrix type="matrix" values="0 0 0 0 1 0 0 0 0 1 0 0 0 0 1 0 0 0 1 0"/>
<feBlend mode="normal" in2="BackgroundImageFix" result="effect1_dropShadow_403_175"/>
<feBlend mode="normal" in="SourceGraphic" in2="effect1_dropShadow_403_175" result="shape"/>
</filter>
</defs>
</svg>
