<svg width="98" height="47" viewBox="0 0 98 47" fill="none" xmlns="http://www.w3.org/2000/svg">
<g opacity="0.51" filter="url(#filter0_d_403_173)">
<path d="M86.713 28.2171C84.5793 24.4364 81.5122 20.887 77.7885 17.9916C73.8542 14.9311 69.183 12.4954 64.0417 10.839C58.9004 9.18263 53.3898 8.33008 47.8246 8.33008C42.2595 8.33008 36.7488 9.18263 31.6075 10.839C26.4662 12.4954 21.795 14.9232 17.8607 17.9836C14.1412 20.9201 11.1505 24.365 9.03878 28.1453C8.60973 28.8678 8.37038 29.6495 8.33474 30.4448C8.29911 31.2401 8.46791 32.033 8.83125 32.7769C9.1946 33.5209 9.74519 34.201 10.4508 34.7774C11.1564 35.3538 12.0028 35.815 12.9405 36.1339C13.8781 36.4528 14.8882 36.623 15.9115 36.6346C16.9349 36.6462 17.9509 36.4989 18.9001 36.2014C19.8494 35.9039 20.7127 35.4621 21.4396 34.9019C22.1665 34.3417 22.7423 33.6744 23.1334 32.939C24.4784 30.5266 26.3801 28.3261 28.7446 26.4464C31.2499 24.4977 34.2244 22.9519 37.4982 21.8972C40.772 20.8426 44.281 20.2998 47.8246 20.2998C51.3683 20.2998 54.8772 20.8426 58.151 21.8972C61.4248 22.9519 64.3993 24.4977 66.9047 26.4464C69.3126 28.3438 71.2465 30.5724 72.6082 33.0187C73.4271 34.4731 74.9555 35.6149 76.8571 36.193C78.7587 36.7712 80.8779 36.7383 82.7483 36.1015C84.6187 35.4648 86.0872 34.2764 86.8307 32.7978C87.5743 31.3191 87.5319 29.6714 86.713 28.2171Z" fill="#F0F0F0"/>
</g>
<defs>
<filter id="filter0_d_403_173" x="-0.000198722" y="-0.000198722" width="97.5618" height="46.8382" filterUnits="userSpaceOnUse" color-interpolation-filters="sRGB">
<feFlood flood-opacity="0" result="BackgroundImageFix"/>
<feColorMatrix in="SourceAlpha" type="matrix" values="0 0 0 0 0 0 0 0 0 0 0 0 0 0 0 0 0 0 127 0" result="hardAlpha"/>
<feOffset dx="0.935986" dy="0.935986"/>
<feGaussianBlur stdDeviation="4.63313"/>
<feComposite in2="hardAlpha" operator="out"/>
<feColorMatrix type="matrix" values="0 0 0 0 1 0 0 0 0 1 0 0 0 0 1 0 0 0 1 0"/>
<feBlend mode="normal" in2="BackgroundImageFix" result="effect1_dropShadow_403_173"/>
<feBlend mode="normal" in="SourceGraphic" in2="effect1_dropShadow_403_173" result="shape"/>
</filter>
</defs>
</svg>
