<svg width="24" height="25" viewBox="0 0 24 25" fill="none" xmlns="http://www.w3.org/2000/svg">
<path d="M7.03027 0.0947266L13.1396 8.9873L13.21 9.08887L13.29 8.99512L20.9473 0.0947266H22.7939L14.1055 10.1943H13.9688L14.0713 10.3428L23.5947 24.2031H16.7461L10.292 14.8105L10.2217 14.709L10.1416 14.8027L2.05371 24.2031H0.208008L9.35449 13.5713L9.40234 13.5156L9.36035 13.4551L0.179688 0.0947266H7.03027ZM2.77539 1.63379L10.2588 12.3369L11.1992 13.6826L17.6055 22.8457L17.6338 22.8857H21.0869L20.9824 22.7363L13.1318 11.5078L12.1914 10.1631L6.15332 1.52441L6.125 1.48438H2.6709L2.77539 1.63379Z" fill="white" stroke="white" stroke-width="0.189831"/>
</svg>
