<svg width="31" height="25" viewBox="0 0 31 25" fill="none" xmlns="http://www.w3.org/2000/svg">
<path d="M15.1865 0.759766C16.4709 0.759767 17.7904 0.791504 19.0713 0.845703V0.84668L20.5869 0.917969V0.918945L22.0469 1.00586V1.00488L23.3994 1.09668V1.09766L24.6475 1.19434H24.6494C25.826 1.28391 26.9335 1.7856 27.7764 2.61133C28.5666 3.38546 29.077 4.39804 29.2314 5.48926L29.2568 5.70898L29.3174 6.35156L29.4307 7.72559C29.5359 9.14451 29.6133 10.6836 29.6133 12.1494C29.6133 13.6153 29.5359 15.1543 29.4307 16.5732L29.3174 17.9463L29.2568 18.5898C29.143 19.7644 28.6184 20.8608 27.7754 21.6865C26.9322 22.5124 25.8243 23.0143 24.6475 23.1035L23.4023 23.1992L22.041 23.293L20.5879 23.3789L19.0752 23.4512C17.7799 23.5073 16.4831 23.536 15.1865 23.5381C13.8899 23.536 12.5932 23.5073 11.2979 23.4512H11.2969L9.78418 23.3789H9.78516L8.33203 23.293H8.33301L6.97168 23.1992H6.97266L5.72363 23.1035C4.54702 23.014 3.4396 22.5123 2.59668 21.6865C1.75435 20.8613 1.22935 19.7654 1.11523 18.5918H1.11621L1.05469 17.9463L0.942383 16.5732C0.828396 15.1013 0.767564 13.6257 0.759766 12.1494C0.759766 10.6836 0.837162 9.14452 0.942383 7.72559L1.05566 6.34375L1.05469 6.34277L1.11523 5.70605C1.2294 4.53273 1.75466 3.43745 2.59668 2.6123C3.43933 1.78658 4.54629 1.28417 5.72266 1.19434H5.72363L6.96973 1.09668L8.32227 1.00488L8.32324 1.00586L9.78418 0.918945L9.7832 0.917969L11.2998 0.84668L11.2988 0.845703C12.594 0.789635 13.8902 0.761873 15.1865 0.759766ZM15.1865 2.27832C13.9207 2.27832 12.6203 2.31134 11.3584 2.36328L11.3535 2.36426L9.86816 2.43555H9.86035L8.43457 2.51953H8.42676L7.08789 2.61035L7.08008 2.61133L5.85352 2.70703C5.03125 2.76591 4.25659 3.11412 3.66602 3.68945C3.07425 4.26597 2.70531 5.03313 2.62598 5.85547C2.44724 7.70239 2.27832 10.0157 2.27832 12.1494C2.27833 14.283 2.44726 16.5956 2.62598 18.4424V18.4434C2.79132 20.1389 4.13987 21.4503 5.84961 21.5908L5.85352 21.5918L7.08105 21.6855H7.08789L8.42676 21.7773H8.43359L9.85938 21.8623L9.86816 21.8633L11.3535 21.9346H11.3584C12.6203 21.9865 13.9207 22.0205 15.1865 22.0205C16.4524 22.0205 17.7528 21.9865 19.0146 21.9346H19.0195L20.5049 21.8633L20.5127 21.8623L21.9385 21.7793L21.9463 21.7783L23.2852 21.6875L23.293 21.6865L24.5195 21.5918L24.5186 21.5908C25.3411 21.5321 26.1163 21.1848 26.707 20.6094C27.2249 20.1049 27.5714 19.4539 27.7031 18.748L27.7471 18.4424C27.9258 16.5956 28.0947 14.283 28.0947 12.1494C28.0947 10.5492 28 8.84797 27.877 7.31836L27.7471 5.85547C27.6677 5.03315 27.2988 4.26596 26.707 3.68945C26.116 3.1137 25.3405 2.76553 24.5176 2.70703H24.5186L23.292 2.6123H23.2852L21.9463 2.52148L21.9395 2.52051L20.5137 2.43555H20.5049L19.0195 2.36426L19.0156 2.36328C17.7404 2.30855 16.4639 2.28074 15.1875 2.27832H15.1865ZM13.043 8.31543C13.062 8.31328 13.0812 8.31535 13.0996 8.32031L13.1631 8.35059L19.5146 12.0176C19.5358 12.0298 19.5543 12.0468 19.5674 12.0674C19.5804 12.0879 19.5877 12.1115 19.5898 12.1357C19.5919 12.16 19.5885 12.1845 19.5791 12.207C19.5713 12.2259 19.5585 12.2416 19.5439 12.2559L19.4824 12.2988L13.1367 15.9639L13.1357 15.9648C13.1144 15.9772 13.0901 15.9834 13.0654 15.9844C13.0407 15.9853 13.0155 15.9805 12.9932 15.9697C12.971 15.959 12.9521 15.9427 12.9375 15.9229C12.9256 15.9067 12.9169 15.8886 12.9121 15.8691L12.9082 15.7959V8.46582C12.9082 8.44113 12.9143 8.41638 12.9258 8.39453C12.9373 8.37285 12.9544 8.3547 12.9746 8.34082C12.9949 8.32694 13.0185 8.31826 13.043 8.31543Z" fill="white" stroke="white" stroke-width="1.51865"/>
</svg>
